<svg width="120" height="27" viewBox="0 0 120 27" fill="none" xmlns="http://www.w3.org/2000/svg">
<path d="M116.508 4.15005V10.2051H118.886V13.1329H116.508V18.5891C116.508 19.1214 116.656 19.5206 116.954 19.7868C117.251 20.0529 117.697 20.186 118.291 20.186C118.588 20.186 120 20.186 120 20.186V23.6461C120 23.6461 117.4 23.6461 117.028 23.6461C115.839 23.6461 114.353 23.4465 113.313 22.5815C112.273 21.7164 111.827 20.5853 111.827 18.9883V13.0663H109.672V10.1386H111.827V4.15005H116.508ZM102.613 23.9122C100.458 23.9122 98.6006 23.2469 97.3377 22.0491C96.0001 20.8514 95.4057 19.2545 95.4057 17.3914V16.9256C95.4057 14.8629 96.0001 13.1994 97.1889 11.8686C98.3778 10.6044 100.087 9.93899 102.316 9.93899C104.322 9.93899 105.957 10.4713 107.072 11.5359C108.26 12.6671 108.78 14.131 108.78 15.9941V18.1898H100.236V18.2564C100.31 18.9883 100.681 19.4541 101.202 19.9199C101.721 20.3857 102.465 20.5853 103.282 20.5853C104.174 20.5853 104.842 20.5187 105.363 20.3857C105.882 20.2526 106.625 20.053 107.369 19.7203L108.483 22.3153C107.814 22.7811 106.997 23.1138 105.957 23.4465C104.917 23.7792 103.728 23.9122 102.613 23.9122ZM102.242 13.1329C101.573 13.1329 101.053 13.3325 100.755 13.7982C100.458 14.264 100.236 14.8629 100.161 15.5283L100.236 15.5948H104.248V15.2621C104.248 14.5302 104.099 14.0644 103.802 13.7317C103.356 13.266 102.91 13.1329 102.242 13.1329ZM86.9352 23.9122C84.7804 23.9122 82.9225 23.2469 81.6596 22.0491C80.3966 20.8514 79.7276 19.2545 79.7276 17.3914V16.9256C79.7276 14.8629 80.322 13.1994 81.5108 11.8686C82.6997 10.6044 84.4088 9.93899 86.6377 9.93899C88.6443 9.93899 90.2788 10.4713 91.3935 11.5359C92.5078 12.6005 93.1022 14.131 93.1022 15.9941V18.1898H84.5575V18.2564C84.6316 18.9883 85.0032 19.4541 85.5235 19.9199C86.0433 20.3857 86.7865 20.5853 87.6037 20.5853C88.4956 20.5853 89.1641 20.5187 89.6844 20.3857C90.2047 20.2526 90.9473 20.053 91.6905 19.7203L92.8052 22.3153C92.1362 22.7811 91.3189 23.1138 90.2788 23.4465C89.3128 23.7792 88.124 23.9122 86.9352 23.9122ZM86.6377 13.1329C85.9692 13.1329 85.4489 13.3325 85.152 13.7982C84.8545 14.264 84.6316 14.8629 84.5575 15.5283L84.6316 15.5948H88.6443V15.2621C88.6443 14.5302 88.4956 14.0644 88.1981 13.7317C87.7524 13.266 87.3068 13.1329 86.6377 13.1329ZM72.7434 17.9237L74.3779 10.0721H78.6129L75.1951 23.5795H71.2571L68.8053 16.3933H68.7307L66.2789 23.5795H62.3409L58.8485 10.1386H63.1581L64.7927 18.0568H64.8668L67.2449 10.1386H70.217L72.7434 17.9237ZM53.0526 19.7868C53.0526 19.4541 52.8298 19.1214 52.3841 18.8552C51.9384 18.5891 51.1953 18.3229 50.0805 18.1233C48.3716 17.7906 47.0341 17.3249 46.1425 16.726C45.2509 16.0606 44.805 15.1956 44.805 14.0644C44.805 12.8667 45.3995 11.8686 46.4397 11.0036C47.5543 10.1386 49.0405 9.80589 50.8978 9.80589C52.8298 9.80589 54.4643 10.2051 55.579 11.0036C56.7678 11.8021 57.2881 12.8002 57.2135 14.1309V14.1975H52.7557C52.7557 13.6652 52.6069 13.2659 52.3095 12.9998C52.0125 12.7336 51.4922 12.6005 50.8978 12.6005C50.378 12.6005 50.0064 12.7336 49.6349 12.9998C49.2633 13.2659 49.1146 13.5321 49.1146 13.9313C49.1146 14.3306 49.3374 14.5967 49.709 14.8629C50.0805 15.129 50.8978 15.3287 52.0125 15.5283C53.7958 15.861 55.2074 16.3268 56.0247 16.9256C56.9166 17.591 57.3622 18.456 57.3622 19.6537C57.3622 20.8514 56.7678 21.8495 55.579 22.648C54.3902 23.4465 52.8298 23.8457 50.8978 23.8457C48.8917 23.8457 47.2571 23.3799 46.0682 22.4484C44.8794 21.5168 44.3592 20.5187 44.4335 19.321V19.2545H48.6689C48.6689 19.9199 48.8917 20.3857 49.3374 20.5853C49.7836 20.7849 50.378 21.0511 51.0465 21.0511C51.7151 21.0511 52.1613 20.918 52.4582 20.7184C52.9039 20.5187 53.0526 20.186 53.0526 19.7868ZM32.8422 10.0721L32.9908 11.9352C33.5109 11.2698 34.1053 10.7375 34.7741 10.4048C35.5171 10.0055 36.2601 9.80589 37.1518 9.80589C38.5635 9.80589 39.7524 10.2717 40.5697 11.0702C41.3871 11.8686 41.8329 13.2659 41.8329 15.129V23.5795H37.3004V15.1956C37.3004 14.3971 37.1518 13.9313 36.7803 13.5986C36.4087 13.2659 35.8886 13.1329 35.2199 13.1329C34.7741 13.1329 34.4026 13.1994 34.031 13.3325C33.6595 13.4656 33.3623 13.6652 33.1394 13.9313V23.6461H28.5325V10.1386H32.8422V10.0721ZM25.709 7.54359H21.0279V4.15005H25.709V7.54359ZM25.709 23.6461H21.0279V10.1386H25.709V23.6461ZM10.774 23.6461V12.9998H8.61923V10.0721H10.774V8.67474C10.774 7.14435 11.2941 5.94665 12.2601 5.08165C13.3003 4.21665 14.8607 4.017 15.9753 4.017C16.3468 4.017 18.9474 4.017 18.9474 4.017V7.4105C18.9474 7.4105 17.5356 7.4105 17.2384 7.4105C16.644 7.4105 16.1982 7.54359 15.901 7.80974C15.6038 8.07589 15.4551 8.47514 15.4551 9.00744V10.0055H18.353V12.9332H15.4551V23.513H10.774V23.6461ZM1.85759 5.28125C1.85759 1.22235 4.23529 0.889648 8.24771 0.889648V4.08355C6.3901 4.08355 5.64706 4.3497 5.64706 5.3478V10.6044C5.64706 11.8021 5.72137 13.0663 4.60681 13.8648C5.72137 14.6633 5.64706 15.861 5.64706 17.1252V22.3818C5.64706 23.4465 6.3901 23.6461 8.24771 23.6461V26.84C4.23529 26.84 1.85759 26.5073 1.85759 22.4484V17.1252C1.85759 16.2602 1.85759 15.3287 0 15.3287V13.9313V12.534C1.85759 12.534 1.85759 11.5359 1.85759 10.7375V5.28125Z" fill="white"/>
</svg>
