<svg width="22" height="21" viewBox="0 0 22 21" fill="none" xmlns="http://www.w3.org/2000/svg">
<path d="M21.1111 3.33325C20.2595 3.87426 19.3166 4.28805 18.3187 4.55868C17.7831 4.00404 17.0713 3.61093 16.2796 3.43251C15.4879 3.25409 14.6544 3.29897 13.8919 3.56108C13.1294 3.82319 12.4747 4.28989 12.0163 4.89805C11.5579 5.50621 11.3179 6.2265 11.3289 6.96149V7.76242C9.76605 7.79892 8.21747 7.48675 6.82104 6.85372C5.42462 6.22069 4.22369 5.28644 3.32522 4.13419C3.32522 4.13419 -0.231958 11.3426 7.77169 14.5464C5.94021 15.666 3.75845 16.2275 1.54663 16.1482C9.55028 20.1529 19.3325 16.1482 19.3325 6.93746C19.3317 6.71436 19.3079 6.49182 19.2614 6.27268C20.169 5.46654 20.8095 4.44872 21.1111 3.33325Z" fill="white"/>
</svg>
