<svg width="22" height="21" viewBox="0 0 22 21" fill="none" xmlns="http://www.w3.org/2000/svg">
<path d="M21.1109 3.33325C20.2593 3.87426 19.3164 4.28805 18.3185 4.55868C17.7829 4.00404 17.0711 3.61093 16.2794 3.43251C15.4876 3.25409 14.6542 3.29897 13.8917 3.56108C13.1292 3.82319 12.4744 4.28989 12.016 4.89805C11.5577 5.50621 11.3177 6.2265 11.3286 6.96149V7.76242C9.76582 7.79892 8.21724 7.48675 6.82081 6.85372C5.42439 6.22069 4.22346 5.28644 3.32499 4.13419C3.32499 4.13419 -0.232187 11.3426 7.77146 14.5464C5.93999 15.666 3.75822 16.2275 1.5464 16.1482C9.55005 20.1529 19.3323 16.1482 19.3323 6.93746C19.3315 6.71436 19.3077 6.49182 19.2611 6.27268C20.1688 5.46654 20.8093 4.44872 21.1109 3.33325Z" fill="white"/>
</svg>
