<svg width="22" height="21" viewBox="0 0 22 21" fill="none" xmlns="http://www.w3.org/2000/svg">
<g clip-path="url(#clip0_542_872)">
<path d="M15.5562 2.53223H6.66327C4.20755 2.53223 2.2168 4.32518 2.2168 6.53691V14.5463C2.2168 16.758 4.20755 18.5509 6.66327 18.5509H15.5562C18.0119 18.5509 20.0027 16.758 20.0027 14.5463V6.53691C20.0027 4.32518 18.0119 2.53223 15.5562 2.53223Z" stroke="white" stroke-width="2" stroke-linecap="round" stroke-linejoin="round"/>
<path d="M14.6667 10.0375C14.7765 10.7041 14.65 11.3849 14.3054 11.983C13.9608 12.5811 13.4156 13.0662 12.7473 13.3692C12.079 13.6721 11.3216 13.7776 10.5829 13.6705C9.84417 13.5635 9.16176 13.2493 8.6327 12.7728C8.10364 12.2964 7.75487 11.6817 7.636 11.0164C7.51713 10.3511 7.63422 9.66901 7.97061 9.06709C8.30699 8.46517 8.84555 7.9741 9.50967 7.66374C10.1738 7.35338 10.9297 7.23952 11.6698 7.33837C12.4247 7.43919 13.1236 7.75603 13.6633 8.24207C14.203 8.72811 14.5548 9.35759 14.6667 10.0375Z" stroke="white" stroke-width="2" stroke-linecap="round" stroke-linejoin="round"/>
<path d="M16.0005 6.13672H16.0101" stroke="white" stroke-width="2" stroke-linecap="round" stroke-linejoin="round"/>
</g>
<defs>
<clipPath id="clip0_542_872">
<rect width="21.3431" height="19.2225" fill="white" transform="translate(0.437988 0.930664)"/>
</clipPath>
</defs>
</svg>
