<svg width="22" height="21" viewBox="0 0 22 21" fill="none" xmlns="http://www.w3.org/2000/svg">
<g clip-path="url(#clip0_548_329)">
<path d="M15.5561 2.53223H6.66313C4.20741 2.53223 2.21666 4.32518 2.21666 6.53691V14.5463C2.21666 16.758 4.20741 18.5509 6.66313 18.5509H15.5561C18.0118 18.5509 20.0025 16.758 20.0025 14.5463V6.53691C20.0025 4.32518 18.0118 2.53223 15.5561 2.53223Z" stroke="white" stroke-width="2" stroke-linecap="round" stroke-linejoin="round"/>
<path d="M14.6668 10.0375C14.7765 10.7041 14.6501 11.3849 14.3055 11.983C13.9609 12.5811 13.4157 13.0662 12.7473 13.3692C12.079 13.6721 11.3216 13.7776 10.5829 13.6705C9.84423 13.5635 9.16182 13.2493 8.63276 12.7728C8.1037 12.2964 7.75493 11.6817 7.63606 11.0164C7.5172 10.3511 7.63428 9.66901 7.97067 9.06709C8.30705 8.46517 8.84561 7.9741 9.50973 7.66374C10.1739 7.35338 10.9297 7.23952 11.6698 7.33837C12.4248 7.43919 13.1237 7.75603 13.6634 8.24207C14.203 8.72811 14.5548 9.35759 14.6668 10.0375Z" stroke="white" stroke-width="2" stroke-linecap="round" stroke-linejoin="round"/>
<path d="M16.0007 6.13672H16.0104" stroke="white" stroke-width="2" stroke-linecap="round" stroke-linejoin="round"/>
</g>
<defs>
<clipPath id="clip0_548_329">
<rect width="21.3431" height="19.2225" fill="white" transform="translate(0.43808 0.930664)"/>
</clipPath>
</defs>
</svg>
