<svg width="883.025px" height="299.3600402832031px" xmlns="http://www.w3.org/2000/svg" viewBox="-191.5125 -74.68002014160155 883.025 299.3600402832031" style="background: rgba(0, 0, 0, 0);" preserveAspectRatio="xMidYMid"><defs><filter id="editing-jagged" x="-100%" y="-100%" width="300%" height="300%"><feTurbulence result="turb" baseFrequency="0" numOctaves="1" seed="1"></feTurbulence><feDisplacementMap in="SourceGraphic" in2="turb" scale="10"></feDisplacementMap></filter></defs><g filter="url(#editing-jagged)"><g transform="translate(-64.43263101577759, 137.92000579833984)"><path d="M24.86-30.91L22.68-39.31L22.68-39.31Q21.67-43.01 17.30-63.34L17.30-63.34L17.30-63.34Q12.94-83.66 8.40-95.76L8.40-95.76L8.40-95.76Q3.86-107.86-2.35-111.89L-2.35-111.89L-2.35-111.89Q-4.03-112.73-4.03-114.07L-4.03-114.07L-4.03-114.07Q-4.03-117.26 5.04-119.28L5.04-119.28L5.04-119.28Q14.11-121.30 19.07-121.30L19.07-121.30L19.07-121.30Q24.02-121.30 25.03-118.44L25.03-118.44L25.03-118.44Q28.06-112.22 32.76-90.55L32.76-90.55L32.76-90.55Q42.34-45.19 46.87-33.43L46.87-33.43L46.87-33.43Q47.88-31.08 49.39-31.08L49.39-31.08L49.39-31.08Q50.90-31.08 52.50-34.02L52.50-34.02L52.50-34.02Q54.10-36.96 56.87-42.42L56.87-42.42L56.87-42.42Q59.64-47.88 64.34-61.82L64.34-61.82L64.34-61.82Q69.05-75.77 69.05-86.02L69.05-86.02L69.05-86.02Q69.05-101.81 58.63-108.36L58.63-108.36L58.63-108.36Q57.79-109.37 57.79-110.54L57.79-110.54L57.79-110.54Q57.79-114.07 67.54-117.60L67.54-117.60L67.54-117.60Q77.28-121.13 85.18-121.13L85.18-121.13L85.18-121.13Q90.38-121.13 90.38-116.26L90.38-116.26L90.38-116.26Q90.38-101.14 84.34-81.23L84.34-81.23L84.34-81.23Q78.29-61.32 69.89-44.27L69.89-44.27L69.89-44.27Q61.49-27.22 54.26-14.78L54.26-14.78L54.26-14.78Q42.84 4.54 39.82 4.54L39.82 4.54L39.82 4.54Q38.30 4.54 36.96 2.18L36.96 2.18L36.96 2.18Q31.92-5.04 24.86-30.91L24.86-30.91ZM145.99-93.07L145.99-93.07L146.66-98.28L146.66-98.28Q146.66-106.01 140.62-108.19L140.62-108.19L140.62-108.19Q135.91-109.70 133.39-109.70L133.39-109.70L133.22-109.70L133.22-109.70Q128.18-109.70 124.49-108.11L124.49-108.11L124.49-108.11Q120.79-106.51 119.11-104.16L119.11-104.16L119.11-104.16Q115.58-99.29 115.08-93.91L115.08-93.91L115.08-93.91Q115.08-87.53 120.79-82.91L120.79-82.91L120.79-82.91Q126.50-78.29 134.65-74.84L134.65-74.84L134.65-74.84Q142.80-71.40 150.95-67.37L150.95-67.37L150.95-67.37Q159.10-63.34 164.81-55.78L164.81-55.78L164.81-55.78Q170.52-48.22 170.52-37.63L170.52-37.63L170.52-37.63Q170.52-16.97 157.50-6.72L157.50-6.72L157.50-6.72Q144.48 3.53 127.93 3.53L127.93 3.53L127.93 3.53Q111.38 3.53 100.55-3.95L100.55-3.95L100.55-3.95Q89.71-11.42 89.71-24.02L89.71-24.02L89.71-24.19L89.71-24.19Q89.71-30.41 91.64-35.03L91.64-35.03L91.64-35.03Q93.58-39.65 96.26-41.83L96.26-41.83L96.26-41.83Q101.81-46.37 106.34-46.70L106.34-46.70L108.36-46.87L108.36-46.87Q113.06-46.87 116.93-44.60L116.93-44.60L116.93-44.60Q120.79-42.34 120.79-38.30L120.79-38.30L120.79-38.30Q120.79-36.29 118.61-34.94L118.61-34.94L118.61-34.94Q116.42-33.60 114.83-30.91L114.83-30.91L114.83-30.91Q113.23-28.22 113.06-26.38L113.06-26.38L112.73-24.53L112.73-24.53Q112.73-14.28 122.14-10.92L122.14-10.92L122.14-10.92Q125.50-9.74 127.51-9.74L127.51-9.74L127.51-9.74Q136.75-9.74 142.38-15.29L142.38-15.29L142.38-15.29Q148.01-20.83 148.01-29.40L148.01-29.40L148.01-29.40Q148.01-39.65 139.27-46.03L139.27-46.03L139.27-46.03Q132.72-50.74 125.08-53.93L125.08-53.93L125.08-53.93Q117.43-57.12 114.74-58.46L114.74-58.46L114.74-58.46Q112.06-59.81 109.03-61.66L109.03-61.66L109.03-61.66Q106.01-63.50 102.31-66.86L102.31-66.86L102.31-66.86Q94.25-73.92 94.25-85.93L94.25-85.93L94.25-85.93Q94.25-97.94 100.80-106.18L100.80-106.18L100.80-106.18Q112.56-121.13 136.08-121.13L136.08-121.13L136.08-121.13Q148.51-121.13 157.08-116.34L157.08-116.34L157.08-116.34Q165.65-111.55 165.65-103.15L165.65-103.15L165.65-103.15Q165.65-97.10 162.20-93.07L162.20-93.07L162.20-93.07Q158.76-89.04 153.38-89.04L153.38-89.04L153.38-89.04Q150.86-89.04 148.43-90.05L148.43-90.05L148.43-90.05Q145.99-91.06 145.99-93.07ZM250.82-38.47L250.82-38.47L250.82-38.47Q254.02-38.47 254.02-30.41L254.02-30.41L254.02-30.41Q254.02-22.34 250.99-15.96L250.99-15.96L250.99-15.96Q247.97-9.58 243.68-6.05L243.68-6.05L243.68-6.05Q239.40-2.52 234.02-0.34L234.02-0.34L234.02-0.34Q216.05 7.56 200.42-0.67L200.42-0.67L200.42-0.67Q192.53-4.87 188.33-10.67L188.33-10.67L188.33-10.67Q184.13-16.46 181.61-24.53L181.61-24.53L181.61-24.53Q177.74-36.62 177.74-49.90L177.74-49.90L177.74-49.90Q177.74-63.17 180.26-74.76L180.26-74.76L180.26-74.76Q182.78-86.35 187.99-96.85L187.99-96.85L187.99-96.85Q193.20-107.35 202.78-113.74L202.78-113.74L202.78-113.74Q212.35-120.12 224.95-120.12L224.95-120.12L224.95-120.12Q230.33-120.12 236.12-118.36L236.12-118.36L236.12-118.36Q241.92-116.59 245.62-113.99L245.62-113.99L245.62-113.99Q249.31-111.38 252.17-106.01L252.17-106.01L252.17-106.01Q255.02-100.63 255.02-93.41L255.02-93.41L255.02-93.41Q255.02-85.68 251.33-79.46L251.33-79.46L251.33-79.46Q249.65-76.61 245.95-74.34L245.95-74.34L245.95-74.34Q242.26-72.07 237.22-72.07L237.22-72.07L237.22-72.07Q229.49-72.07 226.30-78.96L226.30-78.96L226.30-78.96Q224.95-81.65 224.95-84.84L224.95-84.84L224.95-84.84Q224.95-88.03 227.14-88.54L227.14-88.54L227.14-88.54Q229.49-89.21 231.50-92.23L231.50-92.23L231.50-92.23Q233.52-95.26 233.52-99.29L233.52-99.29L233.52-99.29Q233.52-102.48 231.84-104.83L231.84-104.83L231.84-104.83Q228.65-109.03 222.60-109.03L222.60-109.03L222.60-109.03Q216.55-109.03 211.60-103.49L211.60-103.49L211.60-103.49Q206.64-97.94 204.12-89.54L204.12-89.54L204.12-89.54Q199.08-72.74 199.08-58.63L199.08-58.63L199.08-58.63Q199.08-44.52 202.94-35.95L202.94-35.95L202.94-35.95Q207.65-25.37 214.87-21.84L214.87-21.84L214.87-21.84Q219.41-19.66 225.29-19.66L225.29-19.66L225.29-19.66Q235.20-19.66 243.10-28.56L243.10-28.56L243.10-28.56Q246.46-32.09 248.64-36.96L248.64-36.96L248.64-36.96Q249.48-38.47 250.82-38.47ZM279.72-63.34L279.72-63.34L279.72-63.34Q275.35-63.17 273.42-63.08L273.42-63.08L273.42-63.08Q271.49-63.00 271.49-64.01L271.49-64.01L271.49-64.01Q271.49-65.02 272.50-66.02L272.50-66.02L272.50-66.02Q283.25-75.94 308.78-75.94L308.78-75.94L308.78-75.94Q317.52-75.94 322.56-74.42L322.56-74.42L324.24-73.92L324.24-73.92Q326.26-73.08 326.26-72.07L326.26-72.07L326.26-72.07Q326.26-71.23 325.08-70.73L325.08-70.73L325.08-70.73Q320.54-69.38 316.34-66.44L316.34-66.44L316.34-66.44Q312.14-63.50 312.14-62.33L312.14-62.33L313.15-61.15L313.15-61.15Q318.53-58.13 321.47-51.58L321.47-51.58L321.47-51.58Q324.41-45.02 324.74-39.98L324.74-39.98L325.08-34.78L325.08-34.78Q325.08-18.14 315.84-7.39L315.84-7.39L315.84-7.39Q306.60 3.36 290.64 3.36L290.64 3.36L290.64 3.36Q282.58 3.36 276.70 0.50L276.70 0.50L276.70 0.50Q270.82-2.35 268.04-5.96L268.04-5.96L268.04-5.96Q265.27-9.58 263.59-14.11L263.59-14.11L263.59-14.11Q261.58-20.33 261.58-26.96L261.58-26.96L261.58-26.96Q261.58-33.60 263.84-40.32L263.84-40.32L263.84-40.32Q266.11-47.04 269.05-50.23L269.05-50.23L269.05-50.23Q271.99-53.42 275.69-55.44L275.69-55.44L275.69-55.44Q280.39-57.96 283.25-57.96L283.25-57.96L283.25-57.96Q286.10-57.96 286.10-56.78L286.10-56.78L285.10-55.10L285.10-55.10Q281.40-50.74 279.80-43.68L279.80-43.68L279.80-43.68Q278.21-36.62 278.21-31.16L278.21-31.16L278.21-31.16Q278.21-25.70 279.55-20.33L279.55-20.33L279.55-20.33Q280.90-14.95 282.58-12.35L282.58-12.35L282.58-12.35Q284.26-9.74 286.44-8.40L286.44-8.40L286.44-8.40Q289.63-6.38 293.16-6.38L293.16-6.38L293.16-6.38Q296.69-6.38 300.05-9.16L300.05-9.16L300.05-9.16Q303.41-11.93 304.92-16.46L304.92-16.46L304.92-16.46Q307.94-24.86 307.94-33.77L307.94-33.77L307.94-33.77Q307.94-47.88 300.80-55.61L300.80-55.61L300.80-55.61Q293.66-63.34 279.72-63.34ZM393.29-74.76L393.29-74.76L393.29-74.76Q390.26-56.62 390.26-28.56L390.26-28.56L390.26-28.56Q390.26-7.90 391.94-1.34L391.94-1.34L392.62 0.84L392.62 0.84Q392.62 3.02 388.92 3.02L388.92 3.02L388.92 3.02Q375.98 3.02 374.14-4.20L374.14-4.20L374.14-4.20Q373.97-5.04 373.38-5.04L373.38-5.04L373.38-5.04Q372.79-5.04 372.29-4.37L372.29-4.37L372.29-4.37Q367.08 2.52 356.16 2.52L356.16 2.52L356.16 2.52Q350.11 2.52 343.56-0.50L343.56-0.50L343.56-0.50Q339.53-2.35 337.01-6.97L337.01-6.97L337.01-6.97Q334.49-11.59 334.49-18.31L334.49-18.31L337.01-55.10L337.01-55.10Q337.01-66.70 334.66-71.57L334.66-71.57L334.66-71.57Q333.82-73.42 333.82-73.92L333.82-73.92L333.82-73.92Q333.82-74.93 334.66-75.26L334.66-75.26L334.66-75.26Q337.34-76.10 341.54-76.10L341.54-76.10L341.54-76.10Q357.84-76.10 357.84-62.66L357.84-62.66L357.84-62.66Q357.84-58.46 354.40-43.51L354.40-43.51L354.40-43.51Q350.95-28.56 350.95-22.26L350.95-22.26L350.95-22.26Q350.95-15.96 353.72-12.60L353.72-12.60L353.72-12.60Q356.50-9.24 361.45-9.24L361.45-9.24L361.45-9.24Q366.41-9.24 369.26-12.77L369.26-12.77L369.26-12.77Q372.12-16.30 372.62-19.82L372.62-19.82L373.13-23.35L373.13-23.35Q373.80-29.23 373.80-44.02L373.80-44.02L373.80-44.02Q373.80-58.80 372.88-62.75L372.88-62.75L372.88-62.75Q371.95-66.70 371.95-67.70L371.95-67.70L371.95-67.70Q371.95-71.90 378.67-74.34L378.67-74.34L378.67-74.34Q385.39-76.78 390.77-76.78L390.77-76.78L390.77-76.78Q393.29-76.78 393.29-74.76ZM453.43-57.79L452.59-45.02L453.26-39.14L453.26-39.14Q453.26-35.95 447.22-35.95L447.22-35.95L447.22-35.95Q434.95-35.95 434.95-45.19L434.95-45.19L434.95-45.19Q434.95-47.38 436.13-51.24L436.13-51.24L436.13-51.24Q437.30-55.10 437.30-57.96L437.30-57.96L437.30-57.96Q437.30-60.82 435.62-62.92L435.62-62.92L435.62-62.92Q433.94-65.02 430.75-65.02L430.75-65.02L430.75-65.02Q427.56-65.02 425.29-62.75L425.29-62.75L425.29-62.75Q423.02-60.48 422.52-58.13L422.52-58.13L421.85-55.78L421.85-55.78Q420.84-50.57 420.84-38.39L420.84-38.39L420.84-38.39Q420.84-26.21 421.18-19.24L421.18-19.24L421.18-19.24Q421.51-12.26 421.85-9.66L421.85-9.66L421.85-9.66Q422.18-7.06 422.18-6.55L422.18-6.55L422.18-6.55Q422.18-2.35 416.98 0.25L416.98 0.25L416.98 0.25Q411.77 2.86 406.56 2.86L406.56 2.86L406.56 2.86Q401.35 2.86 401.35 0.67L401.35 0.67L402.19-4.54L402.19-4.54Q404.54-19.15 404.54-42.67L404.54-42.67L404.54-42.67Q404.54-66.19 402.86-74.59L402.86-74.59L402.86-74.59Q402.86-76.61 406.39-76.61L406.39-76.61L406.39-76.61Q415.46-76.61 418.49-70.39L418.49-70.39L418.49-70.39Q418.66-69.72 419.08-69.72L419.08-69.72L419.08-69.72Q419.50-69.72 421.34-71.23L421.34-71.23L421.34-71.23Q426.89-75.77 434.45-75.77L434.45-75.77L434.45-75.77Q439.15-75.77 443.86-73.92L443.86-73.92L443.86-73.92Q453.43-70.06 453.43-57.79L453.43-57.79ZM509.04-23.02L509.04-23.02L509.04-23.02Q509.04-15.79 506.27-10.42L506.27-10.42L506.27-10.42Q503.50-5.04 499.97-2.52L499.97-2.52L499.97-2.52Q496.44 0 491.57 1.51L491.57 1.51L491.57 1.51Q485.18 3.53 479.98 3.53L479.98 3.53L479.98 3.53Q469.06 3.53 461.83-0.76L461.83-0.76L461.83-0.76Q454.61-5.04 454.61-14.45L454.61-14.45L454.61-14.45Q454.61-19.99 457.63-23.52L457.63-23.52L457.63-23.52Q462.34-28.73 468.89-28.73L468.89-28.73L468.89-28.73Q470.90-28.73 470.90-26.88L470.90-26.88L470.90-26.88Q470.90-26.71 470.15-24.28L470.15-24.28L470.15-24.28Q469.39-21.84 469.39-18.14L469.39-18.14L469.39-18.14Q469.39-14.45 472.33-11.59L472.33-11.59L472.33-11.59Q475.27-8.74 479.47-8.74L479.47-8.74L479.47-8.74Q483.67-8.74 486.19-10.16L486.19-10.16L486.19-10.16Q488.71-11.59 489.72-13.78L489.72-13.78L489.72-13.78Q491.23-16.80 491.23-19.49L491.23-19.49L491.23-19.49Q491.23-24.36 486.36-27.89L486.36-27.89L486.36-27.89Q481.49-31.42 475.61-33.43L475.61-33.43L475.61-33.43Q469.73-35.45 464.86-40.15L464.86-40.15L464.86-40.15Q459.98-44.86 459.98-51.91L459.98-51.91L459.98-51.91Q459.98-64.01 467.63-70.06L467.63-70.06L467.63-70.06Q475.27-76.10 488.38-76.10L488.38-76.10L488.38-76.10Q494.09-76.10 500.39-74.51L500.39-74.51L500.39-74.51Q506.69-72.91 506.69-69.13L506.69-69.13L506.69-69.13Q506.69-65.35 505.43-62.16L505.43-62.16L505.43-62.16Q504.17-58.97 502.32-58.97L502.32-58.97L502.32-58.97Q501.31-58.97 500.98-59.72L500.98-59.72L500.98-59.72Q500.64-60.48 499.80-61.49L499.80-61.49L499.80-61.49Q498.96-62.50 495.77-64.09L495.77-64.09L495.77-64.09Q492.58-65.69 490.31-65.69L490.31-65.69L490.31-65.69Q488.04-65.69 487.28-65.60L487.28-65.60L487.28-65.60Q486.53-65.52 484.68-65.10L484.68-65.10L484.68-65.10Q482.83-64.68 481.32-63.84L481.32-63.84L481.32-63.84Q477.46-61.66 477.46-57.46L477.46-57.46L477.46-57.46Q477.46-54.77 478.63-53.51L478.63-53.51L478.63-53.51Q479.81-52.25 480.48-51.58L480.48-51.58L480.48-51.58Q481.15-50.90 482.83-49.98L482.83-49.98L482.83-49.98Q484.51-49.06 485.18-48.72L485.18-48.72L485.18-48.72Q485.86-48.38 488.21-47.29L488.21-47.29L488.21-47.29Q490.56-46.20 491.23-45.86L491.23-45.86L491.23-45.86Q509.04-37.46 509.04-23.02ZM531.72-42.67L531.72-42.67L531.89-38.47L531.89-38.47Q531.89-37.46 533.23-37.46L533.23-37.46L533.23-37.46Q538.61-37.97 542.64-40.24L542.64-40.24L542.64-40.24Q546.67-42.50 548.69-45.36L548.69-45.36L548.69-45.36Q552.72-51.58 553.06-56.11L553.06-56.11L553.22-58.13L553.22-58.13Q553.22-67.20 546-67.20L546-67.20L546-67.20Q540.62-67.20 537.26-62.50L537.26-62.50L537.26-62.50Q531.72-55.10 531.72-42.67ZM568.34-20.33L568.34-20.33L568.34-20.33Q568.34-13.94 565.74-9.16L565.74-9.16L565.74-9.16Q563.14-4.37 559.86-2.10L559.86-2.10L559.86-2.10Q556.58 0.17 552.22 1.51L552.22 1.51L552.22 1.51Q546.67 3.19 541.63 3.19L541.63 3.19L541.63 3.19Q527.52 3.19 520.80-7.39L520.80-7.39L520.80-7.39Q514.08-17.98 514.08-34.36L514.08-34.36L514.08-34.36Q514.08-50.74 522.40-63.50L522.40-63.50L522.40-63.50Q530.71-76.27 547.34-76.27L547.34-76.27L547.34-76.27Q562.46-76.27 567.84-65.69L567.84-65.69L567.84-65.69Q570.02-61.66 570.02-58.04L570.02-58.04L570.02-58.04Q570.02-54.43 569.69-52.33L569.69-52.33L569.69-52.33Q569.35-50.23 567.34-46.03L567.34-46.03L567.34-46.03Q565.32-41.83 561.96-38.47L561.96-38.47L561.96-38.47Q558.60-35.11 551.38-32.09L551.38-32.09L551.38-32.09Q544.15-29.06 534.41-28.06L534.41-28.06L534.41-28.06Q533.06-28.06 533.06-26.88L533.06-26.88L533.06-26.88Q533.06-25.37 534.16-22.43L534.16-22.43L534.16-22.43Q535.25-19.49 536.59-17.47L536.59-17.47L536.59-17.47Q540.29-12.77 547.51-12.77L547.51-12.77L547.51-12.77Q554.74-12.77 559.78-17.47L559.78-17.47L559.78-17.47Q562.46-19.99 564.14-23.69L564.14-23.69L564.14-23.69Q564.82-25.03 565.91-25.03L565.91-25.03L565.91-25.03Q567-25.03 567.67-23.18L567.67-23.18L567.67-23.18Q568.34-21.34 568.34-20.33ZM628.66-23.02L628.66-23.02L628.66-23.02Q628.66-15.79 625.88-10.42L625.88-10.42L625.88-10.42Q623.11-5.04 619.58-2.52L619.58-2.52L619.58-2.52Q616.06 0 611.18 1.51L611.18 1.51L611.18 1.51Q604.80 3.53 599.59 3.53L599.59 3.53L599.59 3.53Q588.67 3.53 581.45-0.76L581.45-0.76L581.45-0.76Q574.22-5.04 574.22-14.45L574.22-14.45L574.22-14.45Q574.22-19.99 577.25-23.52L577.25-23.52L577.25-23.52Q581.95-28.73 588.50-28.73L588.50-28.73L588.50-28.73Q590.52-28.73 590.52-26.88L590.52-26.88L590.52-26.88Q590.52-26.71 589.76-24.28L589.76-24.28L589.76-24.28Q589.01-21.84 589.01-18.14L589.01-18.14L589.01-18.14Q589.01-14.45 591.95-11.59L591.95-11.59L591.95-11.59Q594.89-8.74 599.09-8.74L599.09-8.74L599.09-8.74Q603.29-8.74 605.81-10.16L605.81-10.16L605.81-10.16Q608.33-11.59 609.34-13.78L609.34-13.78L609.34-13.78Q610.85-16.80 610.85-19.49L610.85-19.49L610.85-19.49Q610.85-24.36 605.98-27.89L605.98-27.89L605.98-27.89Q601.10-31.42 595.22-33.43L595.22-33.43L595.22-33.43Q589.34-35.45 584.47-40.15L584.47-40.15L584.47-40.15Q579.60-44.86 579.60-51.91L579.60-51.91L579.60-51.91Q579.60-64.01 587.24-70.06L587.24-70.06L587.24-70.06Q594.89-76.10 607.99-76.10L607.99-76.10L607.99-76.10Q613.70-76.10 620.00-74.51L620.00-74.51L620.00-74.51Q626.30-72.91 626.30-69.13L626.30-69.13L626.30-69.13Q626.30-65.35 625.04-62.16L625.04-62.16L625.04-62.16Q623.78-58.97 621.94-58.97L621.94-58.97L621.94-58.97Q620.93-58.97 620.59-59.72L620.59-59.72L620.59-59.72Q620.26-60.48 619.42-61.49L619.42-61.49L619.42-61.49Q618.58-62.50 615.38-64.09L615.38-64.09L615.38-64.09Q612.19-65.69 609.92-65.69L609.92-65.69L609.92-65.69Q607.66-65.69 606.90-65.60L606.90-65.60L606.90-65.60Q606.14-65.52 604.30-65.10L604.30-65.10L604.30-65.10Q602.45-64.68 600.94-63.84L600.94-63.84L600.94-63.84Q597.07-61.66 597.07-57.46L597.07-57.46L597.07-57.46Q597.07-54.77 598.25-53.51L598.25-53.51L598.25-53.51Q599.42-52.25 600.10-51.58L600.10-51.58L600.10-51.58Q600.77-50.90 602.45-49.98L602.45-49.98L602.45-49.98Q604.13-49.06 604.80-48.72L604.80-48.72L604.80-48.72Q605.47-48.38 607.82-47.29L607.82-47.29L607.82-47.29Q610.18-46.20 610.85-45.86L610.85-45.86L610.85-45.86Q628.66-37.46 628.66-23.02Z" fill="#444"></path></g></g><style>text {
  font-size: 64px;
  font-family: Arial Black;
  dominant-baseline: central;
  text-anchor: middle;
}</style></svg>